<?xml version="1.0" encoding="utf-8"?><!-- Uploaded to: SVG Repo, www.svgrepo.com, Generator: SVG Repo Mixer Tools -->
<svg fill="#000000" width="800px" height="800px" viewBox="-3.76 0 99.999 99.999" xmlns="http://www.w3.org/2000/svg">
  <path id="chicken2" d="M397.88,980.986c-3.209-.595-5.367-2.237-7.506-3.9-.435-1.168-1.163-2.039-.9-3.9-3.793.266-8.024-.454-10.809-2.1a13.111,13.111,0,0,1-3.6-3.3c-.13-.17-.534-.47-.6-.6-.061-.109.091-.527,0-.6-.785-.641-1.235-3.763-1.2-5.706a16.386,16.386,0,0,1,1.8-5.4c3.163-2.945,10.524-3.79,15.311-1.8,3.847-6.26,10.105-10.112,15.013-15.313-.1-.106-.305-.043-.553.02-.441.112-1,.224-1.251-.621v-3.9c.212-1.311-.862-1.336-.9-2.4a4.258,4.258,0,0,1,.9-2.1c.038-.866-.162-1.966.3-2.4-.021-5.025.826-9.184,1.2-13.813.353-1.661-1.057-1.743-.3-3,.177-2.026,1.7-2.7,2.4-4.2a22.1,22.1,0,0,0,1.8-4.506c1.016-1.187,1.107-3.3,2.4-4.2.31-1.795,1.813-2.39,2.4-3.9,3.215-2.489,5.676-5.733,9.909-7.207,3.544-2.161,8.47-2.94,13.212-3.9.8-.305,1.169-1.031,2.1-1.2a68.375,68.375,0,0,1,11.408,1.8c8.267,5.243,13.465,13.557,15.317,25.219v3.9c-.565,6.143-3.314,10.1-5.407,14.716-1.719,1.681-3.214,3.591-4.806,5.4-2.017,1.283-3.492,3.11-5.4,4.5-3.743,2.963-8.366,5.048-13.211,6.906-4.4,2.2-10.015,3.2-15.313,4.506-.338,0-.682,0-1.026.006-1.584.021-3.169.041-4.081-.609-.292.7-1.5.5-1.5,1.5-.549.451-.7,1.292-1.2,1.8-3.609,2.495-6.193,6.016-9.007,9.308a44.27,44.27,0,0,1,6,9.609c.145,5.246-1.615,8.591-4.5,10.809a72.982,72.982,0,0,1-7.512.614Q398.334,981,397.88,980.986Zm-3.9-11.11c.56.339,1.446.355,1.2,1.5-.231,1.433.471,1.933.3,3.3,1.758,1.948,4.917,2.492,8.707,2.4a6.311,6.311,0,0,0,2.705-4.5,20.79,20.79,0,0,0-2.705-7.506c-.99-.811-2.534-1.069-3-2.4a12.575,12.575,0,0,1-.3-3.6c2.889-4.519,6.825-7.988,10.51-11.71-1.107-.194-1.574-1.028-1.8-2.1.187-.911-.39-2.584.3-3-.511-1.135.981-2.708-.3-2.7v1.5c-.547,1.457-2.026,1.979-3.005,3-3.372,2.933-6.234,6.379-9.606,9.307-1.216.586-1.877,1.732-3.306,2.105-1.254.646-1.606,2.2-3.3,2.4a29.772,29.772,0,0,0-3.6-1.2,13.835,13.835,0,0,0-3.9.3,9.609,9.609,0,0,0-3.3,3.3v4.2a9.03,9.03,0,0,0,3.3,3c1.244.853,2.284,1.92,4.2,2.1,1.729.228,2.1-.9,3.3-1.2.259-.943,1.134-1.267,1.2-2.4.441-.76.675-1.724,1.8-1.8C396.136,964.225,395.3,968.886,393.979,969.875Zm-2.1,2.4c.085.084.455-.143.3-.3a.075.075,0,0,0-.054-.018C391.994,971.961,391.742,972.146,391.875,972.277ZM414.4,932.045c.009,2.21-1.787,2.619-2.4,4.2a3.251,3.251,0,0,1,1.8,1.5c-.062,1.067,1.41.594,1.2,1.8-.691.906-.473,2.725-.9,3.9-.205.6-1.79-.187-1.5.9H417.4c1.032-2.067,2.973-3.229,5.7-3.6.5-.6-.025-.382,0-1.2-.571-.259.325-.181.3-.6,1.29-.288.527,1.473,1.5,1.5.586-.615,2.013-.384,2.7-.9,1.2,0,1.8-.6,3-.6,1.584-.721,3.623-.982,4.806-2.1a8.2,8.2,0,0,0,4.8-2.4c1.069-.13,1.315-1.088,2.1-1.5.59-.509,1.5-.7,1.8-1.5-.65-1.151-2.108-1.5-2.1-3.3a1.92,1.92,0,0,1,2.1-1.5c1.853.147,1.949,2.052,3.6,2.4,4.191-2.714,8.939-4.87,10.811-9.909-.746-.454-1.066-1.337-.9-2.7a5.6,5.6,0,0,1,2.4-.3c.288-2.013.843-3.759.6-6.3-.4-.806-.809-1.6-1.206-2.4.214-1.311-.51-1.692-.3-3-.752-1.049-.875-2.729-1.5-3.9-.257-1.445-1.246-2.159-1.5-3.6-1.232-2.271-3.07-3.934-4.5-6a1.077,1.077,0,0,1-1.051-.6,1.076,1.076,0,0,0-1.052-.6,8.671,8.671,0,0,1-3.3.3c-1.331-.373-2.24-1.165-3.609-1.5h-4.8c-2.761.544-5.99.614-8.108,1.8a1.879,1.879,0,0,0-1.2.149,1.9,1.9,0,0,1-1.2.15,28.521,28.521,0,0,1-3.9,2.1c-.882.658.139,1.668-1.2,2.1-3.673.932-5.386,3.823-6.906,6.908.914-.012,1.975-.174,1.8.9a8.878,8.878,0,0,1-2.7,3.3,12.443,12.443,0,0,1-2.1,3.3,32.7,32.7,0,0,1-1.8,3.3v.9c1.924-1.382,2.47-4.139,6.006-3.9.131.574.86.544.6,1.5-.242,1.161-1.468,1.336-2.1,2.1-.748,1.453-1.866,2.538-2.7,3.9-.281.821-.922,1.28-1.2,2.1-.2.533-1.485,1.49-.6,2.1.383-.954,3.147-1.929,3.906-.6-.38,1.423-1.762,1.841-2.4,3-.387.923-2.325,1.863-1.5,3,.52-1.067,3.378-2.375,4.5-.9-.621,1.48-2.055,2.435-3,3.9-.323.776-1.086,1.116-1.2,2.1-.418.307-1.579,1.39-.9,1.8.263-.938,1.416-.985,1.8-1.8a6.588,6.588,0,0,1,1.7-.332C413.893,931.41,414.311,931.56,414.4,932.045Zm-9.009,5.7c.485.186.542-.057.6-.3s.114-.486.6-.3c.033-.567.994-.21.9-.9h-2.1Zm5.1-24.32C409.592,913.488,410.778,914.675,410.49,913.428Zm18.015,15.612c-2.154-.4-2.613-5.272.9-4.5.455,1.339,1.512,3.212.3,4.5ZM419.5,909.224a3.857,3.857,0,0,1,2.4.9c.041,2.343.007,4.612-1.5,5.4l-.084,0C417.786,915.529,418.261,910.3,419.5,909.224Zm21.018-.6a4.939,4.939,0,0,1,2.1-.6,3.813,3.813,0,0,1,.6,3.606,4.949,4.949,0,0,1-.527.03C440.956,911.657,440.308,910.568,440.518,908.623Zm5.1-9.609c.907-1.795,4.739-.9,3.9,1.8a3.19,3.19,0,0,1-1.4.314C446.815,901.131,445.548,900.384,445.621,899.014Zm-16.812-2.4c1.732-.932,3.819.108,3.6,2.1a2.158,2.158,0,0,1-1.539.609A2.05,2.05,0,0,1,428.809,896.613Z" transform="translate(-373.258 -881)"/>
</svg>